# xmcd
#
# Track frame offsets:
#	150
#	22660
#	50560
#	73210
#	87385
#	101785
#	117160
#	129835
#	141010
#	154360
#	175210
#
# Disc length: 2582 seconds
#
# Revision: 1
# Processed by: cddbd v1.5.1PL2 Copyright (c) Steve Scherf et al.
# Submitted via: audiograbber 1.83.01
#
DISCID=930a140b
DTITLE=Billy Burnette - Memphis In Manhattan
DYEAR=2006
DGENRE=Rock and Roll
TTITLE0=Memphis Blues
TTITLE1=My Love Will Not Change
TTITLE2=Everything Is Broken
TTITLE3=Oh Well
TTITLE4=Big Hunk Of Love
TTITLE5=Faded Love
TTITLE6=Can't Wait To Get Back Home
TTITLE7=It's Late
TTITLE8=Tryin' To Get Away
TTITLE9=Tear It Up
TTITLE10=Bye Bye Love
EXTD=
EXTT0=
EXTT1=
EXTT2=
EXTT3=
EXTT4=
EXTT5=
EXTT6=
EXTT7=
EXTT8=
EXTT9=
EXTT10=
PLAYORDER=
